# xmcd CD database file
#
# Track frame offsets:
#	150
#	46923
#	87069
#	89920
#	136532
#
# Disc length: 2258 seconds
#
# Revision: 0
# Processed by: cddbd v1.5.1PL2 Copyright (c) Steve Scherf et al.
# Submitted via: CDex 1.50Beta7
#
DISCID=3508d005
DTITLE=Carsten Meinert - cm musictrain
DYEAR=1969
DGENRE=Jazz
TTITLE0=San Sebastian
TTITLE1=This Time
TTITLE2=I´m Going To Valby By The Railroadtrack
TTITLE3=C. M. Musictrain
TTITLE4=Before Sunrise
EXTD=YEAR: 1969
EXTT0=
EXTT1=
EXTT2=
EXTT3=
EXTT4=
PLAYORDER=
